<?xml version="1.0" encoding="UTF-8" standalone="no"?>
<!DOCTYPE svg PUBLIC "-//W3C//DTD SVG 1.1//EN" "http://www.w3.org/Graphics/SVG/1.1/DTD/svg11.dtd">
<svg width="100%" height="100%" viewBox="0 0 540 540" version="1.1" xmlns="http://www.w3.org/2000/svg" xmlns:xlink="http://www.w3.org/1999/xlink" xml:space="preserve" xmlns:serif="http://www.serif.com/" style="fill-rule:evenodd;clip-rule:evenodd;stroke-linecap:square;">
    <g transform="matrix(0.5,0,0,0.5,0,0)">
        <g id="path449" transform="matrix(3.16403,0,0,3.16403,-243.108,-566.832)">
            <path d="M248.725,197.199C332.19,197.199 399.953,264.962 399.953,348.427C399.953,431.892 332.19,499.655 248.725,499.655C165.26,499.655 97.497,431.892 97.497,348.427C97.497,264.962 165.26,197.199 248.725,197.199ZM248.725,214.337C174.719,214.337 114.635,274.421 114.635,348.427C114.635,422.433 174.719,482.517 248.725,482.517C322.731,482.517 382.814,422.433 382.814,348.427C382.814,274.421 322.731,214.337 248.725,214.337Z" style="stroke:white;stroke-width:6.32px;"/>
        </g>
        <g id="path395" transform="matrix(3.16403,0,0,3.16403,-243.108,-566.832)">
            <path d="M276.247,494.566C276.076,479.095 257.147,477.949 245.852,473.885C219.799,468.006 192.021,464.505 169.71,448.529C163.929,445.771 155.532,429.564 168.581,437.171C181.701,443.563 196.393,443.732 210.637,442.569C227.107,441.09 245.129,442.219 258.153,453.687C269.008,462.768 282.675,474.969 279.639,490.752C279.857,491.339 276.578,498.173 276.247,494.566ZM161.233,468.576C155.78,457.797 143.934,450.596 142.735,437.734C143.615,422.105 125.451,419.254 119.333,407.398C107.082,391.818 103.87,371.829 102.678,352.596C101.506,336.314 103.44,319.537 108.877,304.158C111.723,294.883 120.426,284.808 122.516,277.453C111.547,287.713 100.933,298.266 91.316,309.821C81.36,302.278 82.698,285.252 90.252,275.72C97.819,263.65 113.977,269.606 125.665,266.857C135.478,261.402 142.221,250.065 151.773,243.218C165.224,233.63 176.354,218.363 193.854,216.451C209.184,215.094 218.7,232.31 215.625,245.891C212.489,264.989 209.059,285.19 197.635,301.269C192.56,308.651 178.508,292.415 187.598,305.648C192.133,312.623 200.177,317.016 204.509,323.859C209.141,336.219 210.111,349.836 206.92,362.636C205.184,356.729 192.644,347.869 199.684,359.62C202.303,364.514 208.399,388.041 199.164,374.942C190.985,365.159 178.994,356.537 176.716,343.313C176.49,329.896 181.608,313.416 169.986,303.226C167.124,306.7 175.1,322.468 172.505,331.245C172.997,347.537 165.598,365.41 149.942,372.181C146.337,371.327 151.786,358.145 142.699,362.796C129.945,370.731 142.676,385.414 146.654,394.841C154.517,405.338 154.368,418.539 156.245,430.862C158.523,443.022 165.149,453.822 164.066,466.569C164.151,467.852 162.965,470.194 161.233,468.576ZM112.731,376.12C119.755,351.417 123.371,325.867 130.591,301.24C133.258,291.521 139.205,282.85 142.564,274.757C144.962,270.952 158.441,253.971 145.793,263.199C133.859,267.872 126.031,278.291 120.609,289.554C108.574,312.422 104.257,339.084 109.001,364.535C109.788,365.756 110.482,386.516 112.731,376.12ZM143.247,276.245C142.794,274.52 141.874,278.111 143.247,276.245ZM178.171,436.761C170.072,438.457 155.406,425.276 161.805,421.676C178.773,431.535 201.257,430.77 218.417,421.801C233.236,409.701 248.036,394.494 268.36,393.204C285.071,390.698 303.861,401.071 306.647,418.568C298.183,415.482 287.901,403.845 275.897,407.245C257.217,406.014 294.777,420.595 281.569,419.988C264.669,414.806 249.719,426.745 234.506,431.717C216.043,436.355 197.158,437.838 178.171,436.761L178.171,436.761Z" style="fill:rgb(221,114,0);fill-rule:nonzero;stroke:white;stroke-width:4.42px;stroke-linecap:round;stroke-linejoin:round;"/>
        </g>
        <g id="path2565" transform="matrix(3.16403,0,0,3.16403,-243.108,-566.832)">
            <path d="M336.333,229.739L203.892,250.218L348.387,238.009C344.518,235.071 340.495,232.311 336.333,229.739Z" style="fill:rgb(175,0,19);fill-rule:nonzero;stroke:white;stroke-width:5.84px;stroke-linecap:round;stroke-linejoin:round;"/>
        </g>
        <g id="path2567" transform="matrix(3.16403,0,0,3.16403,-243.108,-566.832)">
            <path d="M203.855,252.992L380.99,281.363C378.388,276.672 375.516,272.124 372.385,267.742L203.855,252.992Z" style="fill:rgb(175,0,19);fill-rule:nonzero;stroke:white;stroke-width:5.76px;stroke-linecap:round;stroke-linejoin:round;"/>
        </g>
        <g id="path2563" transform="matrix(3.16403,0,0,3.16403,-243.108,-566.832)">
            <path d="M355.5,246.39L203.752,251.921L366.24,257.401C362.869,253.554 359.284,249.878 355.5,246.39Z" style="fill:rgb(175,0,19);fill-rule:nonzero;stroke:white;stroke-width:5.78px;stroke-linecap:round;stroke-linejoin:round;"/>
        </g>
    </g>
</svg>
